<?xml version="1.0" encoding="utf-8"?>
<!-- Generator: Adobe Illustrator 24.0.1, SVG Export Plug-In . SVG Version: 6.00 Build 0)  -->
<svg version="1.1" id="Слой_1" xmlns="http://www.w3.org/2000/svg" xmlns:xlink="http://www.w3.org/1999/xlink" x="0px" y="0px"
	 viewBox="0 0 51.7 56.7" style="enable-background:new 0 0 51.7 56.7;" xml:space="preserve">
<path d="M46.7,55.8c-5,0-9.5-2.8-11.7-7.3l0,0h-0.4c-2.5,3.2-5.1,5.3-7.8,6.5c-2.6,1.2-6.1,1.7-10.2,1.7c-5.2,0-9.2-1.5-12.2-4.6
	S0,44.7,0,39c0-5.8,2-10.2,6.1-13c4.1-2.9,9.9-4.5,17.6-4.8l9.1-0.3v-0.8c0-4.5-2.2-6.8-6.7-6.8c-1.3,0-2.7,0.1-4.3,0.4
	C15,15,8.2,11.2,5.4,4.9l0,0C11.8,1.6,19.8,0,29.6,0c7,0,12.5,1.7,16.3,5.2c3.9,3.5,5.8,8.3,5.8,14.6v35.9h-5V55.8z M24.5,43.4
	c2.3,0,4.2-0.7,5.9-2.2c1.6-1.5,2.4-3.3,2.4-5.7v-4.3l-4.4,0.2c-6.2,0.2-9.3,2.5-9.3,6.9C19.2,41.7,21,43.4,24.5,43.4z"/>
</svg>
