<?xml version="1.0" encoding="utf-8"?>
<!-- Generator: Adobe Illustrator 24.0.1, SVG Export Plug-In . SVG Version: 6.00 Build 0)  -->
<svg version="1.1" id="Слой_1" xmlns="http://www.w3.org/2000/svg" xmlns:xlink="http://www.w3.org/1999/xlink" x="0px" y="0px"
	 viewBox="0 0 356.6 84.5" style="enable-background:new 0 0 356.6 84.5;" xml:space="preserve">
<g id="Слой_7">
	<g>
		<path d="M251.9,50.8L251.9,50.8L252,51l0.2,0.3l0.5,0.6c0.3,0.4,0.7,0.7,1.1,1.1l1.3,1l1.3,1c1.9,1.2,3.9,2.3,6,3.1
			c4.3,1.7,9,2.5,13.8,2.9h3.6c0.6,0,1.2,0,1.8,0l1.8-0.1c1.2-0.1,2.4-0.2,3.7-0.3l3.6-0.5c2.4-0.3,4.8-0.9,7.3-1.4l3.7-0.8l1.9-0.4
			l1.9-0.3c5.2-0.8,10.5-1,15.7-0.1c2.6,0.4,5.1,1.1,7.6,1.9c2.5,0.9,4.8,2,7.1,3.3c4.5,2.6,8.5,5.9,12,9.7c3.4,3.8,6.4,8,8.7,12.5
			c-2.5-4.4-5.8-8.3-9.4-11.8s-7.7-6.4-12.2-8.6c-2.2-1.1-4.5-2-6.9-2.6s-4.8-1.2-7.2-1.3c-4.9-0.5-9.8,0-14.5,1.1l-1.8,0.4
			l-1.8,0.5l-3.6,1.1c-2.5,0.7-4.9,1.5-7.5,2l-3.8,0.8c-1.3,0.2-2.6,0.4-3.9,0.6l-2,0.3c-0.7,0.1-1.3,0.1-2,0.1l-4,0.2
			c-5.3,0-10.8-0.6-16-2.3c-2.6-0.8-5.2-2-7.7-3.4c-0.6-0.4-1.2-0.7-1.8-1.1l-1.8-1.3c-0.6-0.5-1.1-0.9-1.7-1.5s-1-1-1.7-1.9
			L251.9,50.8z"/>
	</g>
</g>
<path d="M46.7,54.9c-5,0-9.5-2.8-11.7-7.3l0,0h-0.4c-2.5,3.2-5.1,5.3-7.8,6.5c-2.6,1.2-6.1,1.7-10.2,1.7c-5.2,0-9.2-1.5-12.2-4.6
	S0,43.8,0,38.1c0-5.8,2-10.2,6.1-13c4.1-2.9,9.9-4.5,17.6-4.8l9.1-0.3v-0.8c0-4.5-2.2-6.8-6.7-6.8c-1.3,0-2.7,0.1-4.3,0.4
	C15,14.1,8.2,10.3,5.4,4l0,0c6.4-3.3,14.4-4.9,24.2-4.9c7,0,12.5,1.7,16.3,5.2c3.9,3.5,5.8,8.3,5.8,14.6v35.9h-5V54.9z M24.5,42.5
	c2.3,0,4.2-0.7,5.9-2.2c1.6-1.5,2.4-3.3,2.4-5.7v-4.3l-4.4,0.2c-6.2,0.2-9.3,2.5-9.3,6.9C19.2,40.8,21,42.5,24.5,42.5z"/>
<path d="M83.5,64.9L83.5,64.9c-10.4,0-18.9-8.5-18.9-18.9V10.1l0,0c10.4,0,18.9,8.5,18.9,18.9V64.9z"/>
<path d="M163,83.9V31.1c0-3.7-0.5-6.5-1.5-8.3c-1-1.9-2.6-2.8-4.8-2.8c-2.9,0-5,1.2-6.4,3.7s-2,6.4-2,11.6v49.5h-18.9V31.1
	c0-3.7-0.5-6.5-1.5-8.3c-1-1.9-2.5-2.8-4.7-2.8c-3,0-5.1,1.3-6.5,4c-1.4,2.6-2,7-2,13v47l0,0c-10.4,0-18.9-8.5-18.9-18.9v-59h14.3
	l2.4,6.8h1.1c1.5-2.5,3.6-4.4,6.3-5.8c2.8-1.3,5.9-2,9.4-2c7.9,0,13.4,2.4,16.6,7.2h1.5c1.5-2.3,3.7-4,6.5-5.3s5.8-1.9,9.1-1.9
	c6.5,0,11.3,1.7,14.4,5c3.1,3.3,4.6,8.4,4.6,15.1v39.7C181.9,75.4,173.4,83.9,163,83.9L163,83.9z"/>
<path d="M195.8,64.9L195.8,64.9V29c0-10.4,8.5-18.9,18.9-18.9l0,0V46C214.7,56.4,206.2,64.9,195.8,64.9z"/>
<path d="M239.1,26.3L223.9,1.9c-0.5-0.8,0.1-1.8,1-1.8h10.3c5.5,0,10.6,3,13.3,7.9l3,5.5c0.4,0.8,1.6,0.8,2.1,0l3.1-5.7
	C259.4,3,264.4,0,269.9,0h10.4c0.9,0,1.5,1,1,1.8l-15.6,24.3c-0.3,0.4-0.3,0.9,0,1.3L282,52.9c0.5,0.8-0.1,1.8-1,1.8h-9.7
	c-5.9,0-11.4-3.2-14.2-8.4l-3.5-6.4c-0.5-0.8-1.6-0.8-2.1,0l-3.8,6.8c-2.7,4.9-7.8,7.9-13.4,7.9H224c-0.9,0-1.5-1-1-1.8l16.1-25.5
	C239.4,27.2,239.4,26.7,239.1,26.3z"/>
</svg>
