<svg 
 xmlns="http://www.w3.org/2000/svg"
 xmlns:xlink="http://www.w3.org/1999/xlink"
 width="103px" height="167px">
<defs>

</defs>
<path fill-rule="evenodd"  fill="rgb(0, 0, 0)"
 d="M1.960,133.139 C0.159,113.570 -4.277,59.054 30.258,22.054 C64.793,-14.947 87.921,1.663 98.015,24.648 C108.108,47.631 100.417,88.777 75.810,117.373 C51.202,145.970 44.051,159.168 31.017,165.542 C17.984,171.915 3.420,148.988 1.960,133.139 Z"/>
<path fill="url(#PSgrad_0)"
 d="M1.960,133.139 C0.159,113.570 -4.277,59.054 30.258,22.054 C64.793,-14.947 87.921,1.663 98.015,24.648 C108.108,47.631 100.417,88.777 75.810,117.373 C51.202,145.970 44.051,159.168 31.017,165.542 C17.984,171.915 3.420,148.988 1.960,133.139 Z"/>
</svg>