<svg 
 xmlns="http://www.w3.org/2000/svg"
 xmlns:xlink="http://www.w3.org/1999/xlink"
 width="139px" height="77px">
<defs>

</defs>
<path fill-rule="evenodd"  fill="rgb(0, 0, 0)"
 d="M13.682,32.592 C26.311,22.566 61.760,-4.964 102.677,2.141 C143.594,9.247 142.571,32.592 131.319,49.848 C120.067,67.103 88.356,80.298 57.668,76.238 C26.980,72.178 14.705,73.193 4.475,67.103 C-5.754,61.013 3.452,40.713 13.682,32.592 Z"/>
<path fill="url(#PSgrad_0)"
 d="M13.682,32.592 C26.311,22.566 61.760,-4.964 102.677,2.141 C143.594,9.247 142.571,32.592 131.319,49.848 C120.067,67.103 88.356,80.298 57.668,76.238 C26.980,72.178 14.705,73.193 4.475,67.103 C-5.754,61.013 3.452,40.713 13.682,32.592 Z"/>
</svg>